# Blender v2.90.0 OBJ File: ''
# www.blender.org
mtllib Base.mtl
o Cube.005_Cube.006
v -0.462227 -0.087035 4.163739
v -0.462227 0.087035 4.163739
v -0.462227 -0.087035 -4.163739
v -0.462227 0.087035 -4.163739
v 0.462227 -0.087035 4.163739
v 0.462227 0.087035 4.163739
v 0.462227 -0.087035 -4.163739
v 0.462227 0.087035 -4.163739
v 5.377731 -10.300585 4.246444
v 5.377731 3.045681 4.246444
v 5.699125 -10.300585 4.363422
v 5.699125 3.045681 4.363422
v 5.870135 -10.300585 4.659620
v 5.870135 3.045681 4.659620
v 5.810744 -10.300585 4.996444
v 5.810744 3.045681 4.996444
v 5.548742 -10.300585 5.216290
v 5.548742 3.045681 5.216290
v 5.206721 -10.300585 5.216290
v 5.206721 3.045681 5.216290
v 4.944719 -10.300585 4.996444
v 4.944719 3.045681 4.996444
v 4.885327 -10.300585 4.659620
v 4.885327 3.045681 4.659620
v 5.056338 -10.300585 4.363422
v 5.056338 3.045681 4.363422
v 5.377731 -10.300585 -5.229848
v 5.377731 3.045681 -5.229848
v 5.699125 -10.300585 -5.112871
v 5.699125 3.045681 -5.112871
v 5.870135 -10.300585 -4.816673
v 5.870135 3.045681 -4.816673
v 5.810744 -10.300585 -4.479849
v 5.810744 3.045681 -4.479849
v 5.548742 -10.300585 -4.260002
v 5.548742 3.045681 -4.260002
v 5.206721 -10.300585 -4.260002
v 5.206721 3.045681 -4.260002
v 4.944719 -10.300585 -4.479849
v 4.944719 3.045681 -4.479849
v 4.885327 -10.300585 -4.816673
v 4.885327 3.045681 -4.816673
v 5.056338 -10.300585 -5.112871
v 5.056338 3.045681 -5.112871
v 4.917577 -0.087035 4.163739
v 4.917577 0.087035 4.163739
v 4.917577 -0.087035 -4.163739
v 4.917577 0.087035 -4.163739
v 5.842031 -0.087035 4.163739
v 5.842031 0.087035 4.163739
v 5.842031 -0.087035 -4.163739
v 5.842031 0.087035 -4.163739
v 3.860547 -0.087035 4.163739
v 3.860547 0.087035 4.163739
v 3.860547 -0.087035 -4.163739
v 3.860547 0.087035 -4.163739
v 4.785000 -0.087035 4.163739
v 4.785000 0.087035 4.163739
v 4.785000 -0.087035 -4.163739
v 4.785000 0.087035 -4.163739
v 2.772936 -0.087035 4.163739
v 2.772936 0.087035 4.163739
v 2.772936 -0.087035 -4.163739
v 2.772936 0.087035 -4.163739
v 3.697389 -0.087035 4.163739
v 3.697389 0.087035 4.163739
v 3.697389 -0.087035 -4.163739
v 3.697389 0.087035 -4.163739
v 1.715906 -0.087035 4.163739
v 1.715906 0.087035 4.163739
v 1.715906 -0.087035 -4.163739
v 1.715906 0.087035 -4.163739
v 2.640360 -0.087035 4.163739
v 2.640360 0.087035 4.163739
v 2.640360 -0.087035 -4.163739
v 2.640360 0.087035 -4.163739
v 0.594802 -0.087035 4.163739
v 0.594802 0.087035 4.163739
v 0.594802 -0.087035 -4.163739
v 0.594802 0.087035 -4.163739
v 1.519256 -0.087035 4.163739
v 1.519256 0.087035 4.163739
v 1.519256 -0.087035 -4.163739
v 1.519256 0.087035 -4.163739
v 2.140883 -10.300585 4.246444
v 2.140883 3.045681 4.246444
v 2.462276 -10.300585 4.363422
v 2.462276 3.045681 4.363422
v 2.633287 -10.300585 4.659620
v 2.633287 3.045681 4.659620
v 2.573895 -10.300585 4.996444
v 2.573895 3.045681 4.996444
v 2.311893 -10.300585 5.216290
v 2.311893 3.045681 5.216290
v 1.969872 -10.300585 5.216290
v 1.969872 3.045681 5.216290
v 1.707870 -10.300585 4.996444
v 1.707870 3.045681 4.996444
v 1.648479 -10.300585 4.659620
v 1.648479 3.045681 4.659620
v 1.819489 -10.300585 4.363422
v 1.819489 3.045681 4.363422
v 2.140883 -10.300585 -5.229848
v 2.140883 3.045681 -5.229848
v 2.462276 -10.300585 -5.112871
v 2.462276 3.045681 -5.112871
v 2.633287 -10.300585 -4.816673
v 2.633287 3.045681 -4.816673
v 2.573895 -10.300585 -4.479849
v 2.573895 3.045681 -4.479849
v 2.311893 -10.300585 -4.260002
v 2.311893 3.045681 -4.260002
v 1.969872 -10.300585 -4.260002
v 1.969872 3.045681 -4.260002
v 1.707870 -10.300585 -4.479849
v 1.707870 3.045681 -4.479849
v 1.648479 -10.300585 -4.816673
v 1.648479 3.045681 -4.816673
v 1.819489 -10.300585 -5.112871
v 1.819489 3.045681 -5.112871
vt 0.375000 0.000000
vt 0.625000 0.000000
vt 0.625000 0.250000
vt 0.375000 0.250000
vt 0.625000 0.500000
vt 0.375000 0.500000
vt 0.625000 0.750000
vt 0.375000 0.750000
vt 0.625000 1.000000
vt 0.375000 1.000000
vt 0.125000 0.500000
vt 0.125000 0.750000
vt 0.875000 0.500000
vt 0.875000 0.750000
vt 1.000000 0.500000
vt 1.000000 1.000000
vt 0.888889 1.000000
vt 0.888889 0.500000
vt 0.777778 1.000000
vt 0.777778 0.500000
vt 0.666667 1.000000
vt 0.666667 0.500000
vt 0.555556 1.000000
vt 0.555556 0.500000
vt 0.444444 1.000000
vt 0.444444 0.500000
vt 0.333333 1.000000
vt 0.333333 0.500000
vt 0.222222 1.000000
vt 0.222222 0.500000
vt 0.404269 0.433851
vt 0.250000 0.490000
vt 0.095731 0.433851
vt 0.013646 0.291676
vt 0.042154 0.130000
vt 0.167915 0.024474
vt 0.332085 0.024474
vt 0.457846 0.130000
vt 0.486354 0.291676
vt 0.111111 1.000000
vt 0.111111 0.500000
vt 0.000000 1.000000
vt 0.000000 0.500000
vt 0.750000 0.490000
vt 0.904269 0.433851
vt 0.986354 0.291676
vt 0.957846 0.130000
vt 0.832085 0.024474
vt 0.667915 0.024474
vt 0.542154 0.130000
vt 0.513646 0.291676
vt 0.595731 0.433851
vt 1.000000 0.500000
vt 1.000000 1.000000
vt 0.888889 1.000000
vt 0.888889 0.500000
vt 0.777778 1.000000
vt 0.777778 0.500000
vt 0.666667 1.000000
vt 0.666667 0.500000
vt 0.555556 1.000000
vt 0.555556 0.500000
vt 0.444444 1.000000
vt 0.444444 0.500000
vt 0.333333 1.000000
vt 0.333333 0.500000
vt 0.222222 1.000000
vt 0.222222 0.500000
vt 0.404269 0.433851
vt 0.250000 0.490000
vt 0.095731 0.433851
vt 0.013646 0.291676
vt 0.042154 0.130000
vt 0.167915 0.024474
vt 0.332085 0.024474
vt 0.457846 0.130000
vt 0.486354 0.291676
vt 0.111111 1.000000
vt 0.111111 0.500000
vt 0.000000 1.000000
vt 0.000000 0.500000
vt 0.750000 0.490000
vt 0.904269 0.433851
vt 0.986354 0.291676
vt 0.957846 0.130000
vt 0.832085 0.024474
vt 0.667915 0.024474
vt 0.542154 0.130000
vt 0.513646 0.291676
vt 0.595731 0.433851
vt 0.375000 0.000000
vt 0.625000 0.000000
vt 0.625000 0.250000
vt 0.375000 0.250000
vt 0.625000 0.500000
vt 0.375000 0.500000
vt 0.625000 0.750000
vt 0.375000 0.750000
vt 0.625000 1.000000
vt 0.375000 1.000000
vt 0.125000 0.500000
vt 0.125000 0.750000
vt 0.875000 0.500000
vt 0.875000 0.750000
vt 0.375000 0.000000
vt 0.625000 0.000000
vt 0.625000 0.250000
vt 0.375000 0.250000
vt 0.625000 0.500000
vt 0.375000 0.500000
vt 0.625000 0.750000
vt 0.375000 0.750000
vt 0.625000 1.000000
vt 0.375000 1.000000
vt 0.125000 0.500000
vt 0.125000 0.750000
vt 0.875000 0.500000
vt 0.875000 0.750000
vt 0.375000 0.000000
vt 0.625000 0.000000
vt 0.625000 0.250000
vt 0.375000 0.250000
vt 0.625000 0.500000
vt 0.375000 0.500000
vt 0.625000 0.750000
vt 0.375000 0.750000
vt 0.625000 1.000000
vt 0.375000 1.000000
vt 0.125000 0.500000
vt 0.125000 0.750000
vt 0.875000 0.500000
vt 0.875000 0.750000
vt 0.375000 0.000000
vt 0.625000 0.000000
vt 0.625000 0.250000
vt 0.375000 0.250000
vt 0.625000 0.500000
vt 0.375000 0.500000
vt 0.625000 0.750000
vt 0.375000 0.750000
vt 0.625000 1.000000
vt 0.375000 1.000000
vt 0.125000 0.500000
vt 0.125000 0.750000
vt 0.875000 0.500000
vt 0.875000 0.750000
vt 0.375000 0.000000
vt 0.625000 0.000000
vt 0.625000 0.250000
vt 0.375000 0.250000
vt 0.625000 0.500000
vt 0.375000 0.500000
vt 0.625000 0.750000
vt 0.375000 0.750000
vt 0.625000 1.000000
vt 0.375000 1.000000
vt 0.125000 0.500000
vt 0.125000 0.750000
vt 0.875000 0.500000
vt 0.875000 0.750000
vt 1.000000 0.500000
vt 1.000000 1.000000
vt 0.888889 1.000000
vt 0.888889 0.500000
vt 0.777778 1.000000
vt 0.777778 0.500000
vt 0.666667 1.000000
vt 0.666667 0.500000
vt 0.555556 1.000000
vt 0.555556 0.500000
vt 0.444444 1.000000
vt 0.444444 0.500000
vt 0.333333 1.000000
vt 0.333333 0.500000
vt 0.222222 1.000000
vt 0.222222 0.500000
vt 0.404269 0.433851
vt 0.250000 0.490000
vt 0.095731 0.433851
vt 0.013646 0.291676
vt 0.042154 0.130000
vt 0.167915 0.024474
vt 0.332085 0.024474
vt 0.457846 0.130000
vt 0.486354 0.291676
vt 0.111111 1.000000
vt 0.111111 0.500000
vt 0.000000 1.000000
vt 0.000000 0.500000
vt 0.750000 0.490000
vt 0.904269 0.433851
vt 0.986354 0.291676
vt 0.957846 0.130000
vt 0.832085 0.024474
vt 0.667915 0.024474
vt 0.542154 0.130000
vt 0.513646 0.291676
vt 0.595731 0.433851
vt 1.000000 0.500000
vt 1.000000 1.000000
vt 0.888889 1.000000
vt 0.888889 0.500000
vt 0.777778 1.000000
vt 0.777778 0.500000
vt 0.666667 1.000000
vt 0.666667 0.500000
vt 0.555556 1.000000
vt 0.555556 0.500000
vt 0.444444 1.000000
vt 0.444444 0.500000
vt 0.333333 1.000000
vt 0.333333 0.500000
vt 0.222222 1.000000
vt 0.222222 0.500000
vt 0.404269 0.433851
vt 0.250000 0.490000
vt 0.095731 0.433851
vt 0.013646 0.291676
vt 0.042154 0.130000
vt 0.167915 0.024474
vt 0.332085 0.024474
vt 0.457846 0.130000
vt 0.486354 0.291676
vt 0.111111 1.000000
vt 0.111111 0.500000
vt 0.000000 1.000000
vt 0.000000 0.500000
vt 0.750000 0.490000
vt 0.904269 0.433851
vt 0.986354 0.291676
vt 0.957846 0.130000
vt 0.832085 0.024474
vt 0.667915 0.024474
vt 0.542154 0.130000
vt 0.513646 0.291676
vt 0.595731 0.433851
vn -1.0000 0.0000 0.0000
vn 0.0000 0.0000 -1.0000
vn 1.0000 0.0000 0.0000
vn 0.0000 0.0000 1.0000
vn 0.0000 -1.0000 0.0000
vn 0.0000 1.0000 0.0000
vn 0.3420 0.0000 -0.9397
vn 0.8660 0.0000 -0.5000
vn 0.9848 0.0000 0.1736
vn 0.6428 0.0000 0.7660
vn -0.6428 0.0000 0.7660
vn -0.9848 0.0000 0.1736
vn -0.8660 0.0000 -0.5000
vn -0.3420 0.0000 -0.9397
usemtl None
s off
f 1/1/1 2/2/1 4/3/1 3/4/1
f 3/4/2 4/3/2 8/5/2 7/6/2
f 7/6/3 8/5/3 6/7/3 5/8/3
f 5/8/4 6/7/4 2/9/4 1/10/4
f 3/11/5 7/6/5 5/8/5 1/12/5
f 8/5/6 4/13/6 2/14/6 6/7/6
f 9/15/7 10/16/7 12/17/7 11/18/7
f 11/18/8 12/17/8 14/19/8 13/20/8
f 13/20/9 14/19/9 16/21/9 15/22/9
f 15/22/10 16/21/10 18/23/10 17/24/10
f 17/24/4 18/23/4 20/25/4 19/26/4
f 19/26/11 20/25/11 22/27/11 21/28/11
f 21/28/12 22/27/12 24/29/12 23/30/12
f 12/31/6 10/32/6 26/33/6 24/34/6 22/35/6 20/36/6 18/37/6 16/38/6 14/39/6
f 23/30/13 24/29/13 26/40/13 25/41/13
f 25/41/14 26/40/14 10/42/14 9/43/14
f 9/44/5 11/45/5 13/46/5 15/47/5 17/48/5 19/49/5 21/50/5 23/51/5 25/52/5
f 27/53/7 28/54/7 30/55/7 29/56/7
f 29/56/8 30/55/8 32/57/8 31/58/8
f 31/58/9 32/57/9 34/59/9 33/60/9
f 33/60/10 34/59/10 36/61/10 35/62/10
f 35/62/4 36/61/4 38/63/4 37/64/4
f 37/64/11 38/63/11 40/65/11 39/66/11
f 39/66/12 40/65/12 42/67/12 41/68/12
f 30/69/6 28/70/6 44/71/6 42/72/6 40/73/6 38/74/6 36/75/6 34/76/6 32/77/6
f 41/68/13 42/67/13 44/78/13 43/79/13
f 43/79/14 44/78/14 28/80/14 27/81/14
f 27/82/5 29/83/5 31/84/5 33/85/5 35/86/5 37/87/5 39/88/5 41/89/5 43/90/5
f 45/91/1 46/92/1 48/93/1 47/94/1
f 47/94/2 48/93/2 52/95/2 51/96/2
f 51/96/3 52/95/3 50/97/3 49/98/3
f 49/98/4 50/97/4 46/99/4 45/100/4
f 47/101/5 51/96/5 49/98/5 45/102/5
f 52/95/6 48/103/6 46/104/6 50/97/6
f 53/105/1 54/106/1 56/107/1 55/108/1
f 55/108/2 56/107/2 60/109/2 59/110/2
f 59/110/3 60/109/3 58/111/3 57/112/3
f 57/112/4 58/111/4 54/113/4 53/114/4
f 55/115/5 59/110/5 57/112/5 53/116/5
f 60/109/6 56/117/6 54/118/6 58/111/6
f 61/119/1 62/120/1 64/121/1 63/122/1
f 63/122/2 64/121/2 68/123/2 67/124/2
f 67/124/3 68/123/3 66/125/3 65/126/3
f 65/126/4 66/125/4 62/127/4 61/128/4
f 63/129/5 67/124/5 65/126/5 61/130/5
f 68/123/6 64/131/6 62/132/6 66/125/6
f 69/133/1 70/134/1 72/135/1 71/136/1
f 71/136/2 72/135/2 76/137/2 75/138/2
f 75/138/3 76/137/3 74/139/3 73/140/3
f 73/140/4 74/139/4 70/141/4 69/142/4
f 71/143/5 75/138/5 73/140/5 69/144/5
f 76/137/6 72/145/6 70/146/6 74/139/6
f 77/147/1 78/148/1 80/149/1 79/150/1
f 79/150/2 80/149/2 84/151/2 83/152/2
f 83/152/3 84/151/3 82/153/3 81/154/3
f 81/154/4 82/153/4 78/155/4 77/156/4
f 79/157/5 83/152/5 81/154/5 77/158/5
f 84/151/6 80/159/6 78/160/6 82/153/6
f 85/161/7 86/162/7 88/163/7 87/164/7
f 87/164/8 88/163/8 90/165/8 89/166/8
f 89/166/9 90/165/9 92/167/9 91/168/9
f 91/168/10 92/167/10 94/169/10 93/170/10
f 93/170/4 94/169/4 96/171/4 95/172/4
f 95/172/11 96/171/11 98/173/11 97/174/11
f 97/174/12 98/173/12 100/175/12 99/176/12
f 88/177/6 86/178/6 102/179/6 100/180/6 98/181/6 96/182/6 94/183/6 92/184/6 90/185/6
f 99/176/13 100/175/13 102/186/13 101/187/13
f 101/187/14 102/186/14 86/188/14 85/189/14
f 85/190/5 87/191/5 89/192/5 91/193/5 93/194/5 95/195/5 97/196/5 99/197/5 101/198/5
f 103/199/7 104/200/7 106/201/7 105/202/7
f 105/202/8 106/201/8 108/203/8 107/204/8
f 107/204/9 108/203/9 110/205/9 109/206/9
f 109/206/10 110/205/10 112/207/10 111/208/10
f 111/208/4 112/207/4 114/209/4 113/210/4
f 113/210/11 114/209/11 116/211/11 115/212/11
f 115/212/12 116/211/12 118/213/12 117/214/12
f 106/215/6 104/216/6 120/217/6 118/218/6 116/219/6 114/220/6 112/221/6 110/222/6 108/223/6
f 117/214/13 118/213/13 120/224/13 119/225/13
f 119/225/14 120/224/14 104/226/14 103/227/14
f 103/228/5 105/229/5 107/230/5 109/231/5 111/232/5 113/233/5 115/234/5 117/235/5 119/236/5
